<?xml version="1.0" encoding="utf-8"?>
<!-- Generator: Adobe Illustrator 22.0.1, SVG Export Plug-In . SVG Version: 6.00 Build 0)  -->
<svg version="1.1" id="圖層_1" xmlns="http://www.w3.org/2000/svg" xmlns:xlink="http://www.w3.org/1999/xlink" x="0px" y="0px"
	 viewBox="0 0 375 528.5" style="enable-background:new 0 0 375 528.5;" xml:space="preserve">
<style type="text/css">
	.st0{opacity:0.5;fill:#EDE8D6;}
	.st1{opacity:0.19;}
	.st2{opacity:0.5;fill:#EDCB43;}
	.st3{opacity:0.96;fill:#FFFFFF;}
	.st4{fill:none;stroke:#F0AA3E;stroke-miterlimit:10;}
	.st5{fill:none;stroke:#B2B2B2;stroke-width:0.25;stroke-miterlimit:10;}
	.st6{fill:#F0AA3E;}
	.st7{fill:#FFFFFF;stroke:#F0AA3E;stroke-miterlimit:10;}
	.st8{fill:#FFFFFF;}
	.st9{opacity:0.5;}
	.st10{fill:#EDCB43;}
	.st11{clip-path:url(#SVGID_8_);}
	.st12{clip-path:url(#SVGID_14_);}
	.st13{fill:none;stroke:#B2B2B2;stroke-miterlimit:10;}
	.st14{clip-path:url(#SVGID_22_);}
	.st15{clip-path:url(#SVGID_28_);}
	.st16{clip-path:url(#SVGID_32_);}
	.st17{clip-path:url(#SVGID_42_);}
	.st18{fill:none;stroke:#4D4D4D;stroke-width:0.5;stroke-miterlimit:10;}
	.st19{clip-path:url(#SVGID_46_);}
	.st20{clip-path:url(#SVGID_66_);}
	.st21{fill:#FF0000;}
	.st22{fill:#8CC63F;}
	.st23{clip-path:url(#SVGID_74_);}
	.st24{fill:#E14729;}
	.st25{fill:#F0AA3E;stroke:#000000;stroke-width:2;stroke-miterlimit:10;}
	.st26{clip-path:url(#SVGID_90_);}
	.st27{opacity:0.2;fill:#E14729;}
	.st28{fill:#CCCCCC;}
	.st29{clip-path:url(#SVGID_104_);}
	.st30{clip-path:url(#SVGID_120_);}
	.st31{fill:none;stroke:#EA3207;stroke-width:4;stroke-miterlimit:10;stroke-dasharray:5.1315,2.0526,5.1315,2.0526,5.1315,2.0526;}
	.st32{fill:none;stroke:#EA3207;stroke-width:4;stroke-miterlimit:10;stroke-dasharray:4.9981,1.9993,4.9981,1.9993,4.9981,1.9993;}
	.st33{clip-path:url(#SVGID_144_);}
	.st34{fill:none;stroke:#EA3207;stroke-width:4;stroke-miterlimit:10;stroke-dasharray:4.9358,1.9743,4.9358,1.9743,4.9358,1.9743;}
	.st35{fill:none;stroke:#EA3207;stroke-width:4;stroke-miterlimit:10;stroke-dasharray:5,2,5,2,5,2;}
	.st36{fill:none;}
	.st37{fill:#F2F2F2;stroke:#FFFFFF;stroke-miterlimit:10;}
	.st38{fill:#E6E6E6;stroke:#FFFFFF;stroke-miterlimit:10;}
	.st39{fill:#B3B3B3;stroke:#FFFFFF;stroke-miterlimit:10;}
	.st40{fill:#808080;stroke:#FFFFFF;stroke-miterlimit:10;}
	.st41{fill:#C30D23;stroke:#FFFFFF;stroke-miterlimit:10;}
	.st42{fill:#808080;}
	.st43{fill:#B3B3B3;}
	.st44{fill:#E6E6E6;}
	.st45{fill:#F2F2F2;}
	.st46{stroke:#FFFFFF;stroke-miterlimit:10;}
</style>
<circle class="st42" cx="93.6" cy="398.2" r="6"/>
<circle class="st43" cx="93.6" cy="433.2" r="6"/>
<circle class="st44" cx="93.6" cy="468.2" r="6"/>
<circle class="st45" cx="93.6" cy="503.2" r="6"/>
<g>
	<path d="M122.5,405.6H113v-1.5l4.6-4.7c1.5-1.5,2.5-2.7,2.8-3.4c0.4-0.7,0.5-1.4,0.5-2.2c0-0.9-0.3-1.7-0.8-2.2
		c-0.5-0.5-1.3-0.8-2.3-0.8c-1.4,0-2.8,0.6-4.1,1.8V391c1.2-1,2.7-1.5,4.3-1.5c1.4,0,2.5,0.4,3.3,1.1c0.8,0.8,1.2,1.8,1.2,3.1
		c0,1-0.3,2-0.8,2.9c-0.5,1-1.6,2.2-3.1,3.7L115,404v0h7.5V405.6z"/>
	<path d="M125.9,403.4c1.1,0.7,2.2,1.1,3.3,1.1c1.1,0,2-0.3,2.7-1c0.7-0.6,1.1-1.5,1.1-2.6c0-1.1-0.4-1.9-1.1-2.5s-1.7-0.9-3-0.9
		c-0.4,0-1.2,0-2.5,0.1v-7.9h7.6v1.6h-6v4.8c0.6,0,1-0.1,1.4-0.1c1.7,0,3,0.4,3.9,1.3c0.9,0.8,1.4,2,1.4,3.5c0,1.6-0.5,2.8-1.5,3.7
		s-2.4,1.4-4,1.4c-1.5,0-2.5-0.2-3.3-0.7V403.4z"/>
	<path d="M137.1,393.7c0-1.3,0.3-2.3,1-3.1c0.7-0.8,1.6-1.1,2.8-1.1c1.1,0,2,0.4,2.6,1.1c0.6,0.7,0.9,1.7,0.9,2.9c0,1.2-0.3,2.3-1,3
		c-0.7,0.8-1.6,1.2-2.7,1.2c-1.1,0-2-0.4-2.6-1.1C137.4,395.9,137.1,394.9,137.1,393.7z M138.5,393.6c0,0.9,0.2,1.6,0.6,2.1
		c0.4,0.5,1,0.8,1.7,0.8c0.7,0,1.3-0.3,1.7-0.8c0.4-0.5,0.6-1.2,0.6-2.2c0-0.9-0.2-1.6-0.6-2.1c-0.4-0.5-0.9-0.8-1.6-0.8
		c-0.7,0-1.3,0.3-1.7,0.8S138.5,392.8,138.5,393.6z M151.3,389.8l-10.2,16h-1.5l10.2-16H151.3z M146.6,401.9c0-1.3,0.3-2.3,1-3.1
		c0.7-0.8,1.6-1.2,2.8-1.2c1.1,0,2,0.4,2.6,1.1s0.9,1.7,0.9,3c0,1.3-0.4,2.3-1.1,3c-0.7,0.8-1.6,1.1-2.7,1.1c-1.1,0-1.9-0.4-2.6-1.1
		C146.9,404.1,146.6,403.1,146.6,401.9z M148,401.8c0,0.9,0.2,1.6,0.6,2.1c0.4,0.5,1,0.8,1.6,0.8c0.7,0,1.3-0.3,1.7-0.8
		c0.4-0.5,0.6-1.3,0.6-2.2s-0.2-1.6-0.6-2.1c-0.4-0.5-0.9-0.7-1.6-0.7c-0.7,0-1.3,0.3-1.7,0.8C148.2,400.2,148,400.9,148,401.8z"/>
	<path d="M179.8,405.9l-0.8,0.8c-4.4-3.1-7.2-7.3-8.4-12.7c-0.9,4.9-3.7,9.1-8.4,12.6l-0.8-0.9c1.6-1.1,3-2.4,4.4-4.1s2.3-3.4,3-5.4
		c0.7-2,1.1-4.6,1.1-8h1.2c0,3.9,0.7,7.3,2.3,10.3C175,401.6,177.1,404,179.8,405.9z"/>
	<path d="M200.7,400.8H199v2.7H192v1.7c0,0.6-0.2,0.9-0.5,1.1c-0.3,0.2-1.1,0.3-2.2,0.3c-0.4,0-0.8,0-1.2,0l-0.3-1l2.6,0
		c0.4,0,0.5-0.2,0.5-0.6v-1.5h-7.5v-0.9h7.5v-1.7h-8.6v-1h8.6v-1.6h-7.5v-1h7.5v-1.6h-6.8v-3.5h6.8v-1.4h-8.4v-1h8.4v-1.5h1.1v1.5
		h8.4v1H192v1.4h6.8v3.5H192v1.6h6.9v2.6h1.7V400.8z M191,394.7v-1.6h-5.7v1.6H191z M197.7,394.7v-1.6H192v1.6H197.7z M197.8,399.8
		v-1.6H192v1.6H197.8z M197.8,402.5v-1.7H192v1.7H197.8z"/>
	<path d="M214.5,398.8l-0.7,0.8c-1-1.1-2.1-2.1-3.4-3l0.8-0.8C212.6,396.8,213.7,397.8,214.5,398.8z"/>
	<path d="M243,405.3l-0.3,1h-7.9c-3.2,0-5.6-0.8-7.2-2.3c-0.7,1.1-1.5,2-2.4,2.9l-0.9-0.7c2.1-1.8,3.4-4.1,3.9-6.9h-3.5v-0.8
		c1.1-1.5,2.2-3,3.2-4.5h-3.6v-1h4.9v1c-1,1.5-2,2.9-3.1,4.3h3.2v1c-0.3,1.5-0.8,2.8-1.3,3.8c0.6,0.8,1.5,1.3,2.5,1.7
		c1,0.4,2.5,0.6,4.4,0.6H243z M228.7,391.2l-0.7,0.8c-0.7-0.9-1.7-1.9-2.9-3l0.6-0.8C226.8,389.1,227.8,390.1,228.7,391.2z
		 M242.5,402.5h-5.7v1.9h-1v-1.9H230v-0.9h5.7V400h-4.6v-5.7h4.6v-1.7h-3.5v-0.9h3.5v-1.3h1v1.3h3.6v0.9h-3.6v1.7h4.6v5.7h-4.6v1.6
		h5.7V402.5z M242,392.2h-1v-2.4h-9.5v2.4h-1v-3.4H242V392.2z M235.7,396.7v-1.5h-3.5v1.5H235.7z M235.7,399.1v-1.5h-3.5v1.5H235.7z
		 M240.3,396.7v-1.5h-3.6v1.5H240.3z M240.3,399.1v-1.5h-3.6v1.5H240.3z"/>
	<path d="M264,405.2l-0.3,1.2l-8.3-0.1c-3,0-5.3-0.8-6.8-2.3c-0.9,1.2-1.8,2.1-2.5,2.8l-0.9-0.8c2.3-2.1,3.8-4.4,4.4-6.7h-3.7v-1
		c1.4-1.6,2.5-3,3.5-4.3h-3.9v-1h5.4v1c-1.3,1.6-2.4,3-3.4,4.2h3.4v1c-0.3,1.1-0.9,2.4-1.6,3.9c0.7,0.7,1.6,1.3,2.6,1.6
		s2.1,0.5,3.3,0.5c1.2,0,2.5,0,3.9,0C260.6,405.2,262.2,405.2,264,405.2z M250.1,391.4l-0.8,0.8c-0.8-1.1-1.8-2.1-3-3.1l0.8-0.7
		C248.3,389.3,249.3,390.3,250.1,391.4z M263.5,397.1h-5.7c-0.4,3-2.3,5.2-5.5,6.7l-0.8-0.9c3.1-1.3,4.8-3.2,5.2-5.8h-5.1V396h5.3
		c0-0.6,0.1-1.5,0.1-2.9h-4.7v-1.1h10.5v1.1H258c0,0.6,0,1.5-0.1,2.9h5.6V397.1z M256.2,391l-0.9,0.5c-0.4-0.8-1-1.7-1.8-2.7
		l0.9-0.6C255.3,389.3,255.9,390.2,256.2,391z M263.6,402.9l-0.7,0.9c-1.4-1.5-3.1-2.8-5.1-4l0.6-0.9
		C260.5,400.2,262.2,401.5,263.6,402.9z M261.6,388.9c-0.4,0.9-1.1,1.8-2,2.7l-0.9-0.6c0.9-0.9,1.5-1.7,2-2.5L261.6,388.9z"/>
	<path d="M284.7,402.6c-0.1,1.2-0.3,2.2-0.7,3c-0.3,0.8-0.8,1.2-1.3,1.2c-0.5,0-1.2-0.5-1.9-1.4s-1.3-1.8-1.6-2.8
		c-1.6,1.6-3.3,3-5,4.1l-0.8-0.9c2.3-1.5,4.1-3,5.4-4.5c-0.7-2.5-1.1-5.3-1.3-8.5h-7.8v2.9h5.6c0,1.7-0.1,3.3-0.3,4.6
		c-0.1,1.4-0.3,2.2-0.5,2.5c-0.2,0.3-0.4,0.6-0.8,0.7c-0.3,0.2-0.9,0.3-1.9,0.3c-0.3,0-0.6,0-1,0l-0.3-1.1c0.5,0.1,1,0.1,1.4,0.1
		c0.6,0,1,0,1.2-0.1c0.2-0.1,0.3-0.2,0.5-0.3c0.1-0.1,0.2-0.8,0.4-2c0.1-1.2,0.2-2.4,0.2-3.5h-4.5c-0.1,3.8-1,7.2-2.5,10l-0.9-0.8
		c1.5-2.7,2.2-6.1,2.2-10.3v-3.9h8.7c-0.1-1.5-0.1-2.7-0.1-3.5h1.1c0,1.1,0,2.2,0.1,3.5h5.8v1.1h-5.8c0.1,2.7,0.5,5.2,1,7.5
		c1.2-1.6,2.1-3.5,2.8-5.8l1.1,0.4c-1,2.7-2.2,4.9-3.5,6.8c0.4,1.1,0.9,2,1.5,2.7s1,1.1,1.2,1.1c0.2,0,0.4-0.4,0.6-1.2
		c0.2-0.8,0.3-1.6,0.3-2.3L284.7,402.6z M283.5,390.9l-0.9,0.7c-0.6-0.7-1.4-1.5-2.4-2.2l0.9-0.7C282,389.3,282.8,390,283.5,390.9z"
		/>
	<path d="M305.9,402.7l-0.8,0.9c-3.7-2.7-6.3-6.2-7.8-10.6v9h4.6v1.1h-4.6v3.8h-1.2v-3.8h-4.7V402h4.7v-9c-0.9,2.3-2,4.3-3.2,5.9
		c-1.2,1.6-2.8,3.2-4.9,4.7l-0.7-0.9c3.8-2.8,6.4-6,7.6-9.6h-7.1v-1.1h8.3v-3.6h1.2v3.6h8.1v1.1h-6.8
		C299.9,397,302.3,400.2,305.9,402.7z"/>
</g>
<g>
	<path d="M122.8,440.6h-8.9v-1.5h3.6v-12.5l-3.7,1.1V426l5.4-1.7v14.7h3.6V440.6z"/>
	<path d="M134.6,440.6h-9.5V439l4.6-4.7c1.5-1.5,2.5-2.7,2.8-3.4c0.4-0.7,0.5-1.4,0.5-2.2c0-0.9-0.3-1.7-0.8-2.2
		c-0.5-0.5-1.3-0.8-2.3-0.8c-1.4,0-2.8,0.6-4.1,1.8v-1.8c1.2-1,2.7-1.5,4.3-1.5c1.4,0,2.5,0.4,3.3,1.1c0.8,0.8,1.2,1.8,1.2,3.1
		c0,1-0.3,2-0.8,2.9c-0.5,1-1.6,2.2-3.1,3.7l-3.7,3.7v0h7.5V440.6z"/>
	<path d="M137.1,428.7c0-1.3,0.3-2.3,1-3.1c0.7-0.8,1.6-1.1,2.8-1.1c1.1,0,2,0.4,2.6,1.1c0.6,0.7,0.9,1.7,0.9,2.9c0,1.2-0.3,2.3-1,3
		c-0.7,0.8-1.6,1.2-2.7,1.2c-1.1,0-2-0.4-2.6-1.1C137.4,430.8,137.1,429.9,137.1,428.7z M138.5,428.6c0,0.9,0.2,1.6,0.6,2.1
		c0.4,0.5,1,0.8,1.7,0.8c0.7,0,1.3-0.3,1.7-0.8c0.4-0.5,0.6-1.2,0.6-2.2c0-0.9-0.2-1.6-0.6-2.1c-0.4-0.5-0.9-0.8-1.6-0.8
		c-0.7,0-1.3,0.3-1.7,0.8S138.5,427.7,138.5,428.6z M151.3,424.7l-10.2,16h-1.5l10.2-16H151.3z M146.6,436.9c0-1.3,0.3-2.3,1-3.1
		c0.7-0.8,1.6-1.2,2.8-1.2c1.1,0,2,0.4,2.6,1.1s0.9,1.7,0.9,3c0,1.3-0.4,2.3-1.1,3c-0.7,0.8-1.6,1.1-2.7,1.1c-1.1,0-1.9-0.4-2.6-1.1
		C146.9,439,146.6,438.1,146.6,436.9z M148,436.8c0,0.9,0.2,1.6,0.6,2.1c0.4,0.5,1,0.8,1.6,0.8c0.7,0,1.3-0.3,1.7-0.8
		c0.4-0.5,0.6-1.3,0.6-2.2s-0.2-1.6-0.6-2.1c-0.4-0.5-0.9-0.7-1.6-0.7c-0.7,0-1.3,0.3-1.7,0.8C148.2,435.1,148,435.9,148,436.8z"/>
	<path d="M168.8,428c-0.7,5-2.9,9-6.7,11.9l-0.8-0.9c3.3-2.6,5.4-5.9,6.1-9.9h-5.3V428H168.8z M179.8,438.8l-0.7,1
		c-3.4-2.2-6-5-7.7-8.4v8.8c0,0.5-0.1,0.8-0.3,1c-0.2,0.2-0.4,0.4-0.7,0.4s-0.8,0.1-1.7,0.1c-0.7,0-1.2,0-1.6,0l-0.4-1.1
		c1.4,0,2.4,0.1,2.9,0.1c0.4,0,0.5-0.2,0.5-0.5v-16.8h1.1v4.5c0,1,0.3,2.1,1,3.2c2.3-1.8,4.1-3.5,5.4-5.1l0.9,0.7
		c-1.5,1.8-3.4,3.6-5.8,5.4C174.2,434.4,176.5,436.7,179.8,438.8z"/>
	<path d="M200.3,430.9h-1.1v-3.6h-7.4v4.2h-1.1v-4.2h-6.9v3.6h-1.1v-4.6h8v-1.5h-7.2v-1h16v1h-7.7v1.5h8.4V430.9z M200.9,439.1
		c-0.1,0.9-0.3,1.5-0.7,1.8c-0.3,0.4-0.9,0.6-1.8,0.6c-0.9,0.1-1.8,0.1-2.9,0.1c-0.9,0-1.8,0-2.6-0.1s-1.4-0.2-1.7-0.5
		s-0.4-0.7-0.4-1.3v-1.5h-6.7v-6h14.5v6h-6.7v1.6c0,0.2,0.1,0.3,0.2,0.4s0.6,0.2,1.3,0.2c0.8,0.1,1.6,0.1,2.6,0.1
		c1.6,0,2.6,0,2.9-0.1s0.5-0.3,0.6-0.6c0.1-0.3,0.2-0.8,0.3-1.3L200.9,439.1z M189.9,430.8c-1.7,0.4-3.3,0.7-4.7,0.8l-0.3-1
		c1.6-0.1,3.1-0.3,4.7-0.6L189.9,430.8z M189.9,428.6l-0.3,0.9c-1.2-0.3-2.7-0.5-4.6-0.7l0.5-0.9
		C187.2,428.1,188.7,428.3,189.9,428.6z M190.8,434.7v-1.5h-5.6v1.5H190.8z M190.8,437.3v-1.6h-5.6v1.6H190.8z M197.6,434.7v-1.5
		h-5.6v1.5H197.6z M197.6,437.3v-1.6h-5.6v1.6H197.6z M198.2,430.8l-0.5,0.9c-1.5-0.4-3.1-0.7-5-0.8l0.5-0.8
		C195.4,430.2,197,430.5,198.2,430.8z M198,428.9c-1.7,0.3-3.3,0.5-4.8,0.6l-0.3-0.9c1.4-0.1,3-0.3,4.7-0.7L198,428.9z"/>
</g>
<g>
	<path d="M122.5,475.5H113V474l4.6-4.7c1.5-1.5,2.5-2.7,2.8-3.4c0.4-0.7,0.5-1.4,0.5-2.2c0-0.9-0.3-1.7-0.8-2.2
		c-0.5-0.5-1.3-0.8-2.3-0.8c-1.4,0-2.8,0.6-4.1,1.8v-1.8c1.2-1,2.7-1.5,4.3-1.5c1.4,0,2.5,0.4,3.3,1.1c0.8,0.8,1.2,1.8,1.2,3.1
		c0,1-0.3,2-0.8,2.9c-0.5,1-1.6,2.2-3.1,3.7l-3.7,3.7v0h7.5V475.5z"/>
	<path d="M124.9,463.6c0-1.3,0.3-2.3,1-3.1c0.7-0.8,1.6-1.1,2.8-1.1c1.1,0,2,0.4,2.6,1.1c0.6,0.7,0.9,1.7,0.9,2.9c0,1.2-0.3,2.3-1,3
		c-0.7,0.8-1.6,1.2-2.7,1.2c-1.1,0-2-0.4-2.6-1.1C125.3,465.8,124.9,464.8,124.9,463.6z M126.4,463.5c0,0.9,0.2,1.6,0.6,2.1
		c0.4,0.5,1,0.8,1.7,0.8c0.7,0,1.3-0.3,1.7-0.8c0.4-0.5,0.6-1.2,0.6-2.2c0-0.9-0.2-1.6-0.6-2.1c-0.4-0.5-0.9-0.8-1.6-0.8
		c-0.7,0-1.3,0.3-1.7,0.8S126.4,462.6,126.4,463.5z M139.1,459.6l-10.2,16h-1.5l10.2-16H139.1z M134.4,471.8c0-1.3,0.3-2.3,1-3.1
		c0.7-0.8,1.6-1.2,2.8-1.2c1.1,0,2,0.4,2.6,1.1s0.9,1.7,0.9,3c0,1.3-0.4,2.3-1.1,3c-0.7,0.8-1.6,1.1-2.7,1.1c-1.1,0-1.9-0.4-2.6-1.1
		C134.7,474,134.4,473,134.4,471.8z M135.8,471.7c0,0.9,0.2,1.6,0.6,2.1c0.4,0.5,1,0.8,1.6,0.8c0.7,0,1.3-0.3,1.7-0.8
		c0.4-0.5,0.6-1.3,0.6-2.2s-0.2-1.6-0.6-2.1c-0.4-0.5-0.9-0.7-1.6-0.7c-0.7,0-1.3,0.3-1.7,0.8C136,470.1,135.8,470.8,135.8,471.7z"
		/>
	<path d="M156.7,461.4h-7.4v-1.1h3.3c-0.2-0.6-0.5-1.2-0.8-1.8l1-0.4c0.4,0.7,0.8,1.4,1,2.3h3V461.4z M156.1,467.6h-6.5v-1.1h6.5
		V467.6z M156.1,464.5h-6.4v-1.1h6.4V464.5z M155.8,476.1h-1.1V475h-3.8v1.5h-1.1v-7h6V476.1z M154.7,473.9v-3.3h-3.8v3.3H154.7z
		 M167.5,475.8l-0.6,0.9c-2.1-0.7-3.8-1.5-4.9-2.4c-1.3,1-3,1.7-5,2.3l-0.7-0.9c2.1-0.6,3.7-1.3,4.8-2.1c-1.4-1.3-2.5-3.1-3.2-5.4
		h-0.7v-1.1h8.8v1.1c-0.9,2.5-2,4.2-3.1,5.4C164,474.4,165.6,475.1,167.5,475.8z M167.4,465.8h-2c-1,0-1.5-0.5-1.5-1.4v-4.5h-3.7
		c0,1.9-0.3,3.4-0.8,4.3c-0.5,0.9-1.1,1.7-2,2.2l-0.8-0.8c0.8-0.5,1.5-1.2,1.9-2.2c0.4-0.9,0.7-2.5,0.6-4.7h5.8v5.3
		c0,0.5,0.2,0.7,0.7,0.7h1.8V465.8z M164.8,468.1H159c0.7,2.1,1.7,3.6,3,4.7C163.2,471.7,164.1,470.1,164.8,468.1z"/>
	<path d="M174.8,458.3l-1.2,3.9v14.4h-1.1v-11.8c-0.6,1.3-1.2,2.3-1.7,3.1l-0.8-0.9c1.6-2.3,2.8-5.4,3.7-9.1L174.8,458.3z
		 M188.5,464.4h-9.3c-0.4,0.7-0.7,1.3-1.1,1.7h9.1v8.9c0,0.3-0.1,0.6-0.3,0.9s-0.4,0.5-0.7,0.6c-0.3,0.1-0.9,0.1-1.8,0.1l-0.4-1
		c0.5,0,0.9,0,1.2,0c0.7,0,1-0.2,1-0.7v-2.1h-3.4v3.6h-1.1v-3.6h-3.9c-0.5,1.5-1.2,2.9-2.2,4l-0.8-0.7c1.6-1.8,2.4-4,2.4-6.5v-2.3
		c-0.7,1-1.6,1.8-2.5,2.6l-0.7-0.8c1.5-1.3,2.9-2.8,4-4.6h-3.5v-1h3.9v-2.1H175v-1.1h3.5v-2h1.1v2h4v-2h1.1v2h3.3v1.1h-3.3v2.1h3.8
		V464.4z M181.7,471.7v-1.8h-3.4c0,0.7-0.1,1.3-0.2,1.8H181.7z M181.7,468.9v-1.7h-3.4v1.7H181.7z M183.6,463.4v-2.1h-4v2.1H183.6z
		 M186.2,468.9v-1.7h-3.4v1.7H186.2z M186.2,471.7v-1.8h-3.4v1.8H186.2z"/>
	<path d="M196,462.9h-1.8v4.6c0.5-0.2,1-0.5,1.5-0.9v1.1c-0.5,0.3-1,0.6-1.5,0.9v6.6c0,0.9-0.5,1.3-1.5,1.3h-1.1l-0.3-1
		c0.5,0,0.9,0,1.3,0s0.6-0.2,0.6-0.5v-5.9c-0.3,0.2-0.8,0.4-1.7,0.9l-0.3-1c0.7-0.3,1.3-0.6,2-1v-5.2h-2v-1h2v-3.7h1v3.7h1.8V462.9z
		 M203.4,460.6h-1.5v2.3h-1.9v1.3h2.5v3.7h-2.5c0,0.5,0,0.9,0,1.3h2.9v0.9h-2.9c0,0.5-0.1,0.9-0.2,1.3h3.4v0.9h-3.6
		c-0.5,1.6-1.7,3-3.6,4.2l-0.7-0.8c1.7-1,2.8-2.1,3.2-3.4h-2.9v-0.9h3.1c0.1-0.4,0.2-0.9,0.2-1.3h-2.8v-0.9h2.8
		c0.1-0.5,0.1-1,0.1-1.3h-2.5v-3.7h2.5v-1.3h-1.8v-2.3h-1.5v-1h1.5v-1.4h0.9v1.4h2.8v-1.4h1v1.4h1.5V460.6z M198.9,466.9v-1.8h-1.5
		v1.8H198.9z M200.9,462v-1.4H198v1.4H200.9z M203,475.5l-0.7,0.7c-0.9-1-1.8-1.8-2.6-2.4l0.7-0.6C201.2,473.6,202,474.4,203,475.5z
		 M201.4,466.9v-1.8h-1.5v1.8H201.4z M209.5,475.1h-4.7v1.4h-1v-12.2c-0.1,0.1-0.2,0.4-0.5,0.8l-0.6-1c0.9-1.6,1.6-3.6,2.1-6
		l0.9,0.3c-0.2,1.3-0.6,2.6-1,3.7h1.8c-0.1-1.1-0.3-2.1-0.6-3.2l1-0.3c0.3,1.1,0.5,2.2,0.6,3.4h1.7v1h-1.8v3h1.6v1h-1.6v3.1h1.6v1
		h-1.6v3h1.9V475.1z M206.6,466.1v-3h-1.8v3H206.6z M206.6,470.1v-3.1h-1.8v3.1H206.6z M206.6,474.2v-3h-1.8v3H206.6z"/>
	<path d="M218.5,462.9h-2.3v3.8c0.5-0.3,1.2-0.7,1.9-1.2l0.2,1.1c-0.8,0.6-1.5,1-2.1,1.4v7.3c0,0.3-0.1,0.6-0.3,0.8
		c-0.2,0.2-0.4,0.4-0.6,0.4c-0.2,0.1-0.6,0.1-1.3,0.1c-0.3,0-0.7,0-0.9,0l-0.3-1.1c0.2,0,0.8,0,1.9,0c0.1,0,0.2-0.1,0.3-0.2
		c0.1-0.1,0.2-0.3,0.2-0.4v-6.3c-0.6,0.4-1.5,0.9-2.6,1.4l-0.4-1c1.3-0.6,2.3-1.2,3-1.7v-4.5h-2.7v-1h2.7v-3.6h1v3.6h2.3V462.9z
		 M230.5,475.3l-0.4,1.1h-2.8c-1.8,0-3.3-0.2-4.3-0.5c-1.1-0.3-2-1.1-2.8-2.5c-0.6,1.4-1.2,2.4-2,3.2l-0.9-0.7
		c1.6-1.7,2.4-3.8,2.5-6.3l1,0.1c0,0.8-0.1,1.5-0.3,2.3c0.8,1.6,1.8,2.5,2.9,2.8v-6.4h-5.4v-1.1H230v1.1h-5.3v2.5h4.6v1h-4.6v3.2
		c0.6,0.1,1.5,0.2,2.5,0.2H230.5z M228.7,465.7h-9.1v-7h9.1V465.7z M227.7,461.6v-1.8h-7v1.8H227.7z M227.7,464.7v-2.1h-7v2.1H227.7
		z"/>
</g>
<g>
	<path d="M122.8,510.5h-8.9v-1.5h3.6v-12.5l-3.7,1.1v-1.7l5.4-1.7v14.7h3.6V510.5z"/>
	<path d="M124.9,498.6c0-1.3,0.3-2.3,1-3.1c0.7-0.8,1.6-1.1,2.8-1.1c1.1,0,2,0.4,2.6,1.1c0.6,0.7,0.9,1.7,0.9,2.9c0,1.2-0.3,2.3-1,3
		c-0.7,0.8-1.6,1.2-2.7,1.2c-1.1,0-2-0.4-2.6-1.1C125.3,500.7,124.9,499.8,124.9,498.6z M126.4,498.5c0,0.9,0.2,1.6,0.6,2.1
		c0.4,0.5,1,0.8,1.7,0.8c0.7,0,1.3-0.3,1.7-0.8c0.4-0.5,0.6-1.2,0.6-2.2c0-0.9-0.2-1.6-0.6-2.1c-0.4-0.5-0.9-0.8-1.6-0.8
		c-0.7,0-1.3,0.3-1.7,0.8S126.4,497.6,126.4,498.5z M139.1,494.6l-10.2,16h-1.5l10.2-16H139.1z M134.4,506.7c0-1.3,0.3-2.3,1-3.1
		c0.7-0.8,1.6-1.2,2.8-1.2c1.1,0,2,0.4,2.6,1.1s0.9,1.7,0.9,3c0,1.3-0.4,2.3-1.1,3c-0.7,0.8-1.6,1.1-2.7,1.1c-1.1,0-1.9-0.4-2.6-1.1
		C134.7,508.9,134.4,507.9,134.4,506.7z M135.8,506.6c0,0.9,0.2,1.6,0.6,2.1c0.4,0.5,1,0.8,1.6,0.8c0.7,0,1.3-0.3,1.7-0.8
		c0.4-0.5,0.6-1.3,0.6-2.2s-0.2-1.6-0.6-2.1c-0.4-0.5-0.9-0.7-1.6-0.7c-0.7,0-1.3,0.3-1.7,0.8C136,505,135.8,505.7,135.8,506.6z"/>
	<path d="M156.6,503.8l-0.8,0.8c-0.8-1.1-1.5-2-2.2-2.7v9.7h-1.1v-9.3c-1,2.1-1.8,3.8-2.6,4.9l-0.8-0.8c1.2-1.8,2.3-4.1,3.3-6.7
		h-3.1v-1h3.2v-3.2c-1,0.2-1.8,0.4-2.6,0.4l-0.5-1c2.6-0.4,4.7-0.9,6.2-1.7l0.7,1c-0.6,0.3-1.6,0.7-2.8,1v3.5h2.8v1h-2.8v0.7
		C155.1,501.9,156.1,503,156.6,503.8z M167.5,507.2c0,1.5-0.1,2.6-0.4,3.2c-0.3,0.6-0.8,0.9-1.6,0.9c-0.9,0-1.4,0-1.7-0.1
		c-0.3-0.1-0.5-0.2-0.7-0.4c-0.2-0.2-0.3-0.6-0.3-1v-6.5h-1.9c-0.1,3.9-1.7,6.7-4.7,8.3l-0.8-0.8c2.9-1.4,4.4-3.9,4.5-7.5h-2.1v-5.5
		h8.4v5.5h-2.3v6.4c0,0.4,0.4,0.5,1.1,0.5c0.7,0,1.1-0.1,1.2-0.3c0.2-0.2,0.3-1.2,0.4-3.1L167.5,507.2z M160.9,493.8
		c-1,1.4-2.5,2.7-4.3,4l-0.8-0.8c2-1.4,3.4-2.7,4.2-3.9L160.9,493.8z M165,502.2v-3.4h-6.2v3.4H165z M167.7,496.8l-0.7,0.8
		c-1.3-1.4-2.8-2.6-4.4-3.7l0.7-0.8C164.8,494.1,166.3,495.4,167.7,496.8z"/>
	<path d="M188.6,499.8l-0.7,1c-1.4-0.6-2.5-1.2-3.4-1.8v1h-4.7v3h7.5v1.1h-7.5v5.9h7.9v1.1h-16.7v-1.1h7.7V504h-7.3V503h7.3v-3h-4.5
		v-1.1c-1.3,0.8-2.4,1.4-3.4,1.8l-0.7-1c3.9-1.5,6.9-3.7,9.1-6.6l1.2,0.4l-0.3,0.4C182.3,496.4,185.1,498.4,188.6,499.8z
		 M176.4,508.6l-1,0.4c-0.4-0.9-1.1-2.1-2.1-3.5l1-0.5C175.2,506.2,175.9,507.4,176.4,508.6z M184.3,498.8c-1.7-1-3.3-2.4-4.9-4.2
		c-1.2,1.5-2.9,2.9-5,4.2H184.3z M185.7,505.6c-0.8,1.5-1.6,2.7-2.4,3.5l-1-0.6c0.8-0.8,1.5-1.9,2.4-3.5L185.7,505.6z"/>
</g>
<g>
	<g>
		<g>
			<path class="st37" d="M186.5,188.4L174.4,15.3c3.8-0.3,8.3-0.4,12.1-0.4V188.4z"/>
		</g>
	</g>
	<g>
		<g>
			<path class="st38" d="M186.5,188.4L153.4,18.1c7.5-1.5,13.4-2.2,21-2.8L186.5,188.4z"/>
		</g>
	</g>
	<g>
		<g>
			<path class="st39" d="M186.5,188.4L46.1,86.4c27-37.2,62.1-59.6,107.3-68.4L186.5,188.4z"/>
		</g>
	</g>
	<g>
		<g>
			<path class="st40" d="M186.5,188.4l-102,140.4C6.9,272.5-10.2,164,46.1,86.4l0,0L186.5,188.4z"/>
		</g>
	</g>
	<g>
		<g>
			<path class="st41" d="M186.5,188.4V14.9c95.9,0,173.6,77.7,173.6,173.6S282.4,362,186.5,362c-38.3,0-71-10.6-102-33.1
				L186.5,188.4z"/>
		</g>
	</g>
</g>
<circle class="st8" cx="186.5" cy="188.4" r="127.2"/>
<g>
	<path class="st46" d="M176.2,150.3c-2.7-1.4-5.6-2.1-8.7-2.1c-4.6,0-8.2,1.8-10.8,5.5s-4,8.3-3.9,14.1h0.2
		c2.5-4.3,6.4-6.4,11.8-6.4c4.6,0,8.2,1.4,10.9,4.3s4.1,6.6,4.1,11.1c0,4.8-1.6,8.9-4.9,12.1c-3.2,3.2-7.4,4.8-12.4,4.8
		c-5.7,0-10.2-2-13.2-6.1c-3.1-4.1-4.6-9.7-4.6-16.8c0-8.4,2-15.3,6-20.6c4-5.3,9.5-8,16.6-8c3.8,0,6.8,0.5,9.1,1.4V150.3z
		 M153.1,176.5c0,3.1,0.9,5.7,2.6,7.9s4,3.2,6.8,3.2c2.8,0,5-1,6.6-2.9c1.6-2,2.5-4.4,2.5-7.2c0-3.2-0.8-5.7-2.3-7.5
		c-1.6-1.7-3.8-2.6-6.8-2.6c-2.7,0-4.9,0.9-6.7,2.6C154,171.7,153.1,173.9,153.1,176.5z"/>
	<path class="st46" d="M185.5,168.9c0-8.8,1.6-15.4,4.8-19.9c3.2-4.5,7.8-6.8,13.9-6.8c11.6,0,17.3,8.5,17.3,25.5
		c0,8.3-1.6,14.7-4.7,19.2c-3.2,4.5-7.7,6.8-13.7,6.8c-5.8,0-10.2-2.1-13.1-6.4C187,183,185.5,176.9,185.5,168.9z M193.7,168.6
		c0,12.7,3.3,19,9.9,19c6.5,0,9.7-6.5,9.7-19.4c0-13.3-3.2-19.9-9.5-19.9C197,148.2,193.7,155,193.7,168.6z"/>
	<path class="st46" d="M225.3,181.3c0-1.3,0.4-2.3,1.1-3s1.7-1.1,2.9-1.1c1.2,0,2.1,0.3,2.8,1c0.7,0.7,1,1.6,1,2.9
		c0,1.2-0.4,2.2-1.1,3c-0.7,0.8-1.7,1.1-2.9,1.1c-1.1,0-2.1-0.4-2.7-1.1S225.3,182.4,225.3,181.3z M227.2,181.2
		c0,0.8,0.2,1.4,0.5,1.9c0.4,0.4,0.9,0.6,1.5,0.6c1.4,0,2.1-0.9,2.1-2.6c0-1.7-0.7-2.5-2-2.5c-0.7,0-1.2,0.2-1.6,0.7
		C227.4,179.7,227.2,180.3,227.2,181.2z M240.5,177.4l-10.6,15.5h-2.1l10.6-15.5H240.5z M235.3,189.2c0-1.3,0.4-2.3,1.1-3
		c0.7-0.8,1.7-1.1,2.9-1.1c1.2,0,2.1,0.3,2.8,1c0.7,0.7,1,1.7,1,2.9s-0.4,2.2-1.1,3c-0.7,0.8-1.7,1.1-2.9,1.1
		c-1.2,0-2.1-0.4-2.8-1.1C235.7,191.3,235.3,190.3,235.3,189.2z M237.2,189.1c0,0.8,0.2,1.4,0.5,1.9s0.9,0.6,1.5,0.6
		c1.4,0,2.1-0.9,2.1-2.6c0-0.8-0.2-1.4-0.5-1.9s-0.9-0.7-1.5-0.7C237.9,186.5,237.2,187.4,237.2,189.1z"/>
</g>
<g>
	<path d="M182.7,214l-0.8,1.2c-2.4-0.9-4.7-2-6.8-3.2v1h-6.9V212c-2.2,1.3-4.5,2.3-6.8,3.3l-0.7-1.1c4.6-1.6,8.3-3.9,11.2-6.7
		l1.3,0.6c-0.1,0.1-0.3,0.3-0.6,0.6C175,210.8,178.4,212.6,182.7,214z M178.9,222.4h-13.5v5.5c1.4-0.3,3.3-0.8,5.6-1.6l0.1,1.3
		c-2.2,0.7-4.6,1.3-7,1.9l-0.5-1.3c0.3-0.3,0.5-0.6,0.5-1v-12.9h14.8V222.4z M177.6,217.7v-1.9h-12.2v1.9H177.6z M177.6,221.1v-2.2
		h-12.2v2.2H177.6z M174.6,211.7c-1-0.7-2-1.4-3.1-2.3c-1.1,0.9-2.1,1.7-3,2.3H174.6z M181.6,223.3c-1.2,1-2.5,1.9-4.1,2.7
		c1.5,0.8,2.8,1.6,4.1,2.4l-0.8,1.1c-2.5-1.7-5.6-3.3-9.5-4.9l0.6-1.1c1.5,0.6,2.9,1.2,4.2,1.8c1.2-0.5,2.7-1.4,4.4-2.8L181.6,223.3
		z"/>
	<path d="M196.3,220.2l-0.9,1.1c-0.9-1.5-2-3.1-3.4-4.6v12.8h-1.3v-12.9c-1.2,2.9-2.6,5.2-4.1,7l-0.9-1.1c2-2.4,3.6-5.3,4.8-8.8
		h-4.4v-1.3h4.6v-5h1.3v5h3.9v1.3H192v1.3C193.5,216.6,195,218.3,196.3,220.2z M207.8,213.7h-2.9V227c0,1-0.2,1.7-0.7,2
		c-0.5,0.3-1.4,0.5-2.8,0.5c-0.5,0-0.9,0-1.3,0l-0.5-1.3c0.7,0,1.3,0.1,2,0.1c1,0,1.6-0.1,1.8-0.2c0.2-0.2,0.3-0.4,0.3-0.8v-12
		c-1.8,4.1-4.6,7.6-8.4,10.5l-0.9-1c4-2.8,6.9-6.5,8.6-11h-6.1v-1.3h6.8v-5h1.3v5h2.9V213.7z"/>
</g>
<line x1="307.1" y1="110.2" x2="239.7" y2="144.4"/>
</svg>
