<?xml version="1.0" encoding="utf-8"?>
<!-- Generator: Adobe Illustrator 22.0.1, SVG Export Plug-In . SVG Version: 6.00 Build 0)  -->
<svg version="1.1" id="圖層_1" xmlns="http://www.w3.org/2000/svg" xmlns:xlink="http://www.w3.org/1999/xlink" x="0px" y="0px"
	 viewBox="0 0 880 374" style="enable-background:new 0 0 880 374;" xml:space="preserve">
<style type="text/css">
	.st0{opacity:0.5;fill:#EDE8D6;}
	.st1{opacity:0.19;}
	.st2{opacity:0.5;fill:#EDCB43;}
	.st3{opacity:0.96;fill:#FFFFFF;}
	.st4{fill:none;stroke:#F0AA3E;stroke-miterlimit:10;}
	.st5{fill:none;stroke:#B2B2B2;stroke-width:0.25;stroke-miterlimit:10;}
	.st6{fill:#F0AA3E;}
	.st7{fill:#FFFFFF;stroke:#F0AA3E;stroke-miterlimit:10;}
	.st8{fill:#FFFFFF;}
	.st9{opacity:0.5;}
	.st10{fill:#EDCB43;}
	.st11{clip-path:url(#SVGID_8_);}
	.st12{clip-path:url(#SVGID_14_);}
	.st13{fill:none;stroke:#B2B2B2;stroke-miterlimit:10;}
	.st14{clip-path:url(#SVGID_22_);}
	.st15{clip-path:url(#SVGID_28_);}
	.st16{clip-path:url(#SVGID_32_);}
	.st17{clip-path:url(#SVGID_42_);}
	.st18{fill:none;stroke:#4D4D4D;stroke-width:0.5;stroke-miterlimit:10;}
	.st19{clip-path:url(#SVGID_46_);}
	.st20{clip-path:url(#SVGID_66_);}
	.st21{fill:#FF0000;}
	.st22{fill:#8CC63F;}
	.st23{clip-path:url(#SVGID_74_);}
	.st24{fill:#E14729;}
	.st25{fill:#F0AA3E;stroke:#000000;stroke-width:2;stroke-miterlimit:10;}
	.st26{clip-path:url(#SVGID_90_);}
	.st27{opacity:0.2;fill:#E14729;}
	.st28{fill:#CCCCCC;}
	.st29{clip-path:url(#SVGID_104_);}
	.st30{clip-path:url(#SVGID_120_);}
	.st31{fill:none;stroke:#EA3207;stroke-width:4;stroke-miterlimit:10;stroke-dasharray:5.1315,2.0526,5.1315,2.0526,5.1315,2.0526;}
	.st32{fill:none;stroke:#EA3207;stroke-width:4;stroke-miterlimit:10;stroke-dasharray:4.9981,1.9993,4.9981,1.9993,4.9981,1.9993;}
	.st33{clip-path:url(#SVGID_144_);}
	.st34{fill:none;stroke:#EA3207;stroke-width:4;stroke-miterlimit:10;stroke-dasharray:4.9358,1.9743,4.9358,1.9743,4.9358,1.9743;}
	.st35{fill:none;stroke:#EA3207;stroke-width:4;stroke-miterlimit:10;stroke-dasharray:5,2,5,2,5,2;}
	.st36{fill:none;}
	.st37{fill:#F2F2F2;stroke:#FFFFFF;stroke-miterlimit:10;}
	.st38{fill:#E6E6E6;stroke:#FFFFFF;stroke-miterlimit:10;}
	.st39{fill:#B3B3B3;stroke:#FFFFFF;stroke-miterlimit:10;}
	.st40{fill:#808080;stroke:#FFFFFF;stroke-miterlimit:10;}
	.st41{fill:#C30D23;stroke:#FFFFFF;stroke-miterlimit:10;}
	.st42{fill:#808080;}
	.st43{fill:#B3B3B3;}
	.st44{fill:#E6E6E6;}
	.st45{fill:#F2F2F2;}
	.st46{stroke:#FFFFFF;stroke-miterlimit:10;}
</style>
<g>
	<g>
		<g>
			<path class="st37" d="M311.5,186.4L299.4,13.3c3.8-0.3,8.3-0.4,12.1-0.4V186.4z"/>
		</g>
	</g>
	<g>
		<g>
			<path class="st38" d="M311.5,186.4L278.4,16.1c7.5-1.5,13.4-2.2,21-2.8L311.5,186.4z"/>
		</g>
	</g>
	<g>
		<g>
			<path class="st39" d="M311.5,186.4l-140.4-102c27-37.2,62.1-59.6,107.3-68.4L311.5,186.4z"/>
		</g>
	</g>
	<g>
		<g>
			<path class="st40" d="M311.5,186.4l-102,140.4c-77.5-56.3-94.7-164.9-38.4-242.4l0,0L311.5,186.4z"/>
		</g>
	</g>
	<g>
		<g>
			<path class="st41" d="M311.5,186.4V12.9c95.9,0,173.6,77.7,173.6,173.6S407.3,360,311.5,360c-38.3,0-71-10.6-102-33.1
				L311.5,186.4z"/>
		</g>
	</g>
</g>
<circle class="st42" cx="520.9" cy="122.8" r="6"/>
<circle class="st43" cx="520.9" cy="157.7" r="6"/>
<circle class="st44" cx="520.9" cy="192.7" r="6"/>
<circle class="st45" cx="520.9" cy="227.7" r="6"/>
<g>
	<path d="M549.8,130.2h-9.5v-1.5l4.6-4.7c1.5-1.5,2.5-2.7,2.8-3.4c0.4-0.7,0.5-1.4,0.5-2.2c0-0.9-0.3-1.7-0.8-2.2
		c-0.5-0.5-1.3-0.8-2.3-0.8c-1.4,0-2.8,0.6-4.1,1.8v-1.8c1.2-1,2.7-1.5,4.3-1.5c1.4,0,2.5,0.4,3.3,1.1c0.8,0.8,1.2,1.8,1.2,3.1
		c0,1-0.3,2-0.8,2.9c-0.5,1-1.6,2.2-3.1,3.7l-3.7,3.7v0h7.5V130.2z"/>
	<path d="M553.3,127.9c1.1,0.7,2.2,1.1,3.3,1.1c1.1,0,2-0.3,2.7-1c0.7-0.6,1.1-1.5,1.1-2.6c0-1.1-0.4-1.9-1.1-2.5s-1.7-0.9-3-0.9
		c-0.4,0-1.2,0-2.5,0.1v-7.9h7.6v1.6h-6v4.8c0.6,0,1-0.1,1.4-0.1c1.7,0,3,0.4,3.9,1.3c0.9,0.8,1.4,2,1.4,3.5c0,1.6-0.5,2.8-1.5,3.7
		s-2.4,1.4-4,1.4c-1.5,0-2.5-0.2-3.3-0.7V127.9z"/>
	<path d="M564.5,118.3c0-1.3,0.3-2.3,1-3.1c0.7-0.8,1.6-1.1,2.8-1.1c1.1,0,2,0.4,2.6,1.1c0.6,0.7,0.9,1.7,0.9,2.9c0,1.2-0.3,2.3-1,3
		c-0.7,0.8-1.6,1.2-2.7,1.2c-1.1,0-2-0.4-2.6-1.1C564.8,120.4,564.5,119.5,564.5,118.3z M565.9,118.2c0,0.9,0.2,1.6,0.6,2.1
		c0.4,0.5,1,0.8,1.7,0.8c0.7,0,1.3-0.3,1.7-0.8c0.4-0.5,0.6-1.2,0.6-2.2c0-0.9-0.2-1.6-0.6-2.1c-0.4-0.5-0.9-0.8-1.6-0.8
		c-0.7,0-1.3,0.3-1.7,0.8S565.9,117.3,565.9,118.2z M578.6,114.3l-10.2,16H567l10.2-16H578.6z M573.9,126.4c0-1.3,0.3-2.3,1-3.1
		c0.7-0.8,1.6-1.2,2.8-1.2c1.1,0,2,0.4,2.6,1.1s0.9,1.7,0.9,3c0,1.3-0.4,2.3-1.1,3c-0.7,0.8-1.6,1.1-2.7,1.1c-1.1,0-1.9-0.4-2.6-1.1
		C574.3,128.6,573.9,127.6,573.9,126.4z M575.3,126.3c0,0.9,0.2,1.6,0.6,2.1c0.4,0.5,1,0.8,1.6,0.8c0.7,0,1.3-0.3,1.7-0.8
		c0.4-0.5,0.6-1.3,0.6-2.2s-0.2-1.6-0.6-2.1c-0.4-0.5-0.9-0.7-1.6-0.7c-0.7,0-1.3,0.3-1.7,0.8C575.6,124.7,575.3,125.4,575.3,126.3z
		"/>
	<path d="M607.1,130.4l-0.8,0.8c-4.4-3.1-7.2-7.3-8.4-12.7c-0.9,4.9-3.7,9.1-8.4,12.6l-0.8-0.9c1.6-1.1,3-2.4,4.4-4.1s2.3-3.4,3-5.4
		c0.7-2,1.1-4.6,1.1-8h1.2c0,3.9,0.7,7.3,2.3,10.3C602.4,126.1,604.5,128.5,607.1,130.4z"/>
	<path d="M628.1,125.3h-1.7v2.7h-6.9v1.7c0,0.6-0.2,0.9-0.5,1.1c-0.3,0.2-1.1,0.3-2.2,0.3c-0.4,0-0.8,0-1.2,0l-0.3-1l2.6,0
		c0.4,0,0.5-0.2,0.5-0.6V128h-7.5v-0.9h7.5v-1.7h-8.6v-1h8.6v-1.6h-7.5v-1h7.5v-1.6h-6.8v-3.5h6.8v-1.4h-8.4v-1h8.4v-1.5h1.1v1.5
		h8.4v1h-8.4v1.4h6.8v3.5h-6.8v1.6h6.9v2.6h1.7V125.3z M618.3,119.2v-1.6h-5.7v1.6H618.3z M625.1,119.2v-1.6h-5.7v1.6H625.1z
		 M625.2,124.3v-1.6h-5.8v1.6H625.2z M625.2,127.1v-1.7h-5.8v1.7H625.2z"/>
	<path d="M641.9,123.3l-0.7,0.8c-1-1.1-2.1-2.1-3.4-3l0.8-0.8C640,121.3,641.1,122.4,641.9,123.3z"/>
	<path d="M670.3,129.8l-0.3,1h-7.9c-3.2,0-5.6-0.8-7.2-2.3c-0.7,1.1-1.5,2-2.4,2.9l-0.9-0.7c2.1-1.8,3.4-4.1,3.9-6.9h-3.5v-0.8
		c1.1-1.5,2.2-3,3.2-4.5h-3.6v-1h4.9v1c-1,1.5-2,2.9-3.1,4.3h3.2v1c-0.3,1.5-0.8,2.8-1.3,3.8c0.6,0.8,1.5,1.3,2.5,1.7
		c1,0.4,2.5,0.6,4.4,0.6H670.3z M656.1,115.8l-0.7,0.8c-0.7-0.9-1.7-1.9-2.9-3l0.6-0.8C654.2,113.6,655.1,114.6,656.1,115.8z
		 M669.9,127.1h-5.7v1.9h-1v-1.9h-5.7v-0.9h5.7v-1.6h-4.6v-5.7h4.6v-1.7h-3.5v-0.9h3.5V115h1v1.3h3.6v0.9h-3.6v1.7h4.6v5.7h-4.6v1.6
		h5.7V127.1z M669.4,116.8h-1v-2.4h-9.5v2.4h-1v-3.4h11.6V116.8z M663.1,121.2v-1.5h-3.5v1.5H663.1z M663.1,123.6v-1.5h-3.5v1.5
		H663.1z M667.7,121.2v-1.5h-3.6v1.5H667.7z M667.7,123.6v-1.5h-3.6v1.5H667.7z"/>
	<path d="M691.4,129.7l-0.3,1.2l-8.3-0.1c-3,0-5.3-0.8-6.8-2.3c-0.9,1.2-1.8,2.1-2.5,2.8l-0.9-0.8c2.3-2.1,3.8-4.4,4.4-6.7h-3.7v-1
		c1.4-1.6,2.5-3,3.5-4.3h-3.9v-1h5.4v1c-1.3,1.6-2.4,3-3.4,4.2h3.4v1c-0.3,1.1-0.9,2.4-1.6,3.9c0.7,0.7,1.6,1.3,2.6,1.6
		s2.1,0.5,3.3,0.5c1.2,0,2.5,0,3.9,0C687.9,129.7,689.6,129.7,691.4,129.7z M677.4,115.9l-0.8,0.8c-0.8-1.1-1.8-2.1-3-3.1l0.8-0.7
		C675.7,113.8,676.7,114.8,677.4,115.9z M690.9,121.6h-5.7c-0.4,3-2.3,5.2-5.5,6.7l-0.8-0.9c3.1-1.3,4.8-3.2,5.2-5.8h-5.1v-1.1h5.3
		c0-0.6,0.1-1.5,0.1-2.9h-4.7v-1.1h10.5v1.1h-4.7c0,0.6,0,1.5-0.1,2.9h5.6V121.6z M683.6,115.5l-0.9,0.5c-0.4-0.8-1-1.7-1.8-2.7
		l0.9-0.6C682.7,113.8,683.3,114.7,683.6,115.5z M691,127.4l-0.7,0.9c-1.4-1.5-3.1-2.8-5.1-4l0.6-0.9
		C687.9,124.7,689.6,126,691,127.4z M688.9,113.4c-0.4,0.9-1.1,1.8-2,2.7l-0.9-0.6c0.9-0.9,1.5-1.7,2-2.5L688.9,113.4z"/>
	<path d="M712,127.1c-0.1,1.2-0.3,2.2-0.7,3c-0.3,0.8-0.8,1.2-1.3,1.2c-0.5,0-1.2-0.5-1.9-1.4s-1.3-1.8-1.6-2.8
		c-1.6,1.6-3.3,3-5,4.1l-0.8-0.9c2.3-1.5,4.1-3,5.4-4.5c-0.7-2.5-1.1-5.3-1.3-8.5H697v2.9h5.6c0,1.7-0.1,3.3-0.3,4.6
		c-0.1,1.4-0.3,2.2-0.5,2.5c-0.2,0.3-0.4,0.6-0.8,0.7c-0.3,0.2-0.9,0.3-1.9,0.3c-0.3,0-0.6,0-1,0l-0.3-1.1c0.5,0.1,1,0.1,1.4,0.1
		c0.6,0,1,0,1.2-0.1c0.2-0.1,0.3-0.2,0.5-0.3c0.1-0.1,0.2-0.8,0.4-2c0.1-1.2,0.2-2.4,0.2-3.5h-4.5c-0.1,3.8-1,7.2-2.5,10l-0.9-0.8
		c1.5-2.7,2.2-6.1,2.2-10.3v-3.9h8.7c-0.1-1.5-0.1-2.7-0.1-3.5h1.1c0,1.1,0,2.2,0.1,3.5h5.8v1.1h-5.8c0.1,2.7,0.5,5.2,1,7.5
		c1.2-1.6,2.1-3.5,2.8-5.8l1.1,0.4c-1,2.7-2.2,4.9-3.5,6.8c0.4,1.1,0.9,2,1.5,2.7s1,1.1,1.2,1.1c0.2,0,0.4-0.4,0.6-1.2
		c0.2-0.8,0.3-1.6,0.3-2.3L712,127.1z M710.9,115.4l-0.9,0.7c-0.6-0.7-1.4-1.5-2.4-2.2l0.9-0.7C709.4,113.8,710.2,114.5,710.9,115.4
		z"/>
	<path d="M733.2,127.3l-0.8,0.9c-3.7-2.7-6.3-6.2-7.8-10.6v9h4.6v1.1h-4.6v3.8h-1.2v-3.8h-4.7v-1.1h4.7v-9c-0.9,2.3-2,4.3-3.2,5.9
		c-1.2,1.6-2.8,3.2-4.9,4.7l-0.7-0.9c3.8-2.8,6.4-6,7.6-9.6h-7.1v-1.1h8.3v-3.6h1.2v3.6h8.1v1.1h-6.8
		C727.2,121.5,729.7,124.7,733.2,127.3z"/>
</g>
<g>
	<path d="M550.2,165.1h-8.9v-1.5h3.6v-12.5l-3.7,1.1v-1.7l5.4-1.7v14.7h3.6V165.1z"/>
	<path d="M562,165.1h-9.5v-1.5l4.6-4.7c1.5-1.5,2.5-2.7,2.8-3.4c0.4-0.7,0.5-1.4,0.5-2.2c0-0.9-0.3-1.7-0.8-2.2
		c-0.5-0.5-1.3-0.8-2.3-0.8c-1.4,0-2.8,0.6-4.1,1.8v-1.8c1.2-1,2.7-1.5,4.3-1.5c1.4,0,2.5,0.4,3.3,1.1c0.8,0.8,1.2,1.8,1.2,3.1
		c0,1-0.3,2-0.8,2.9c-0.5,1-1.6,2.2-3.1,3.7l-3.7,3.7v0h7.5V165.1z"/>
	<path d="M564.5,153.2c0-1.3,0.3-2.3,1-3.1c0.7-0.8,1.6-1.1,2.8-1.1c1.1,0,2,0.4,2.6,1.1c0.6,0.7,0.9,1.7,0.9,2.9c0,1.2-0.3,2.3-1,3
		c-0.7,0.8-1.6,1.2-2.7,1.2c-1.1,0-2-0.4-2.6-1.1C564.8,155.3,564.5,154.4,564.5,153.2z M565.9,153.1c0,0.9,0.2,1.6,0.6,2.1
		c0.4,0.5,1,0.8,1.7,0.8c0.7,0,1.3-0.3,1.7-0.8c0.4-0.5,0.6-1.2,0.6-2.2c0-0.9-0.2-1.6-0.6-2.1c-0.4-0.5-0.9-0.8-1.6-0.8
		c-0.7,0-1.3,0.3-1.7,0.8S565.9,152.2,565.9,153.1z M578.6,149.2l-10.2,16H567l10.2-16H578.6z M573.9,161.4c0-1.3,0.3-2.3,1-3.1
		c0.7-0.8,1.6-1.2,2.8-1.2c1.1,0,2,0.4,2.6,1.1s0.9,1.7,0.9,3c0,1.3-0.4,2.3-1.1,3c-0.7,0.8-1.6,1.1-2.7,1.1c-1.1,0-1.9-0.4-2.6-1.1
		C574.3,163.5,573.9,162.6,573.9,161.4z M575.3,161.3c0,0.9,0.2,1.6,0.6,2.1c0.4,0.5,1,0.8,1.6,0.8c0.7,0,1.3-0.3,1.7-0.8
		c0.4-0.5,0.6-1.3,0.6-2.2s-0.2-1.6-0.6-2.1c-0.4-0.5-0.9-0.7-1.6-0.7c-0.7,0-1.3,0.3-1.7,0.8C575.6,159.6,575.3,160.4,575.3,161.3z
		"/>
	<path d="M596.1,152.5c-0.7,5-2.9,9-6.7,11.9l-0.8-0.9c3.3-2.6,5.4-5.9,6.1-9.9h-5.3v-1.1H596.1z M607.2,163.3l-0.7,1
		c-3.4-2.2-6-5-7.7-8.4v8.8c0,0.5-0.1,0.8-0.3,1c-0.2,0.2-0.4,0.4-0.7,0.4s-0.8,0.1-1.7,0.1c-0.7,0-1.2,0-1.6,0l-0.4-1.1
		c1.4,0,2.4,0.1,2.9,0.1c0.4,0,0.5-0.2,0.5-0.5v-16.8h1.1v4.5c0,1,0.3,2.1,1,3.2c2.3-1.8,4.1-3.5,5.4-5.1l0.9,0.7
		c-1.5,1.8-3.4,3.6-5.8,5.4C601.6,158.9,603.9,161.2,607.2,163.3z"/>
	<path d="M627.7,155.4h-1.1v-3.6h-7.4v4.2h-1.1v-4.2h-6.9v3.6h-1.1v-4.6h8v-1.5H611v-1h16v1h-7.7v1.5h8.4V155.4z M628.3,163.6
		c-0.1,0.9-0.3,1.5-0.7,1.8c-0.3,0.4-0.9,0.6-1.8,0.6c-0.9,0.1-1.8,0.1-2.9,0.1c-0.9,0-1.8,0-2.6-0.1s-1.4-0.2-1.7-0.5
		s-0.4-0.7-0.4-1.3v-1.5h-6.7v-6H626v6h-6.7v1.6c0,0.2,0.1,0.3,0.2,0.4s0.6,0.2,1.3,0.2c0.8,0.1,1.6,0.1,2.6,0.1
		c1.6,0,2.6,0,2.9-0.1s0.5-0.3,0.6-0.6c0.1-0.3,0.2-0.8,0.3-1.3L628.3,163.6z M617.3,155.3c-1.7,0.4-3.3,0.7-4.7,0.8l-0.3-1
		c1.6-0.1,3.1-0.3,4.7-0.6L617.3,155.3z M617.3,153.1l-0.3,0.9c-1.2-0.3-2.7-0.5-4.6-0.7l0.5-0.9
		C614.6,152.6,616.1,152.9,617.3,153.1z M618.2,159.3v-1.5h-5.6v1.5H618.2z M618.2,161.8v-1.6h-5.6v1.6H618.2z M624.9,159.3v-1.5
		h-5.6v1.5H624.9z M624.9,161.8v-1.6h-5.6v1.6H624.9z M625.6,155.3l-0.5,0.9c-1.5-0.4-3.1-0.7-5-0.8l0.5-0.8
		C622.7,154.7,624.4,155,625.6,155.3z M625.4,153.4c-1.7,0.3-3.3,0.5-4.8,0.6l-0.3-0.9c1.4-0.1,3-0.3,4.7-0.7L625.4,153.4z"/>
</g>
<g>
	<path d="M549.8,200h-9.5v-1.5l4.6-4.7c1.5-1.5,2.5-2.7,2.8-3.4c0.4-0.7,0.5-1.4,0.5-2.2c0-0.9-0.3-1.7-0.8-2.2
		c-0.5-0.5-1.3-0.8-2.3-0.8c-1.4,0-2.8,0.6-4.1,1.8v-1.8c1.2-1,2.7-1.5,4.3-1.5c1.4,0,2.5,0.4,3.3,1.1c0.8,0.8,1.2,1.8,1.2,3.1
		c0,1-0.3,2-0.8,2.9c-0.5,1-1.6,2.2-3.1,3.7l-3.7,3.7v0h7.5V200z"/>
	<path d="M552.3,188.1c0-1.3,0.3-2.3,1-3.1c0.7-0.8,1.6-1.1,2.8-1.1c1.1,0,2,0.4,2.6,1.1c0.6,0.7,0.9,1.7,0.9,2.9c0,1.2-0.3,2.3-1,3
		c-0.7,0.8-1.6,1.2-2.7,1.2c-1.1,0-2-0.4-2.6-1.1C552.6,190.3,552.3,189.3,552.3,188.1z M553.8,188c0,0.9,0.2,1.6,0.6,2.1
		c0.4,0.5,1,0.8,1.7,0.8c0.7,0,1.3-0.3,1.7-0.8c0.4-0.5,0.6-1.2,0.6-2.2c0-0.9-0.2-1.6-0.6-2.1c-0.4-0.5-0.9-0.8-1.6-0.8
		c-0.7,0-1.3,0.3-1.7,0.8S553.8,187.1,553.8,188z M566.5,184.1l-10.2,16h-1.5l10.2-16H566.5z M561.8,196.3c0-1.3,0.3-2.3,1-3.1
		c0.7-0.8,1.6-1.2,2.8-1.2c1.1,0,2,0.4,2.6,1.1s0.9,1.7,0.9,3c0,1.3-0.4,2.3-1.1,3c-0.7,0.8-1.6,1.1-2.7,1.1c-1.1,0-1.9-0.4-2.6-1.1
		C562.1,198.5,561.8,197.5,561.8,196.3z M563.2,196.2c0,0.9,0.2,1.6,0.6,2.1c0.4,0.5,1,0.8,1.6,0.8c0.7,0,1.3-0.3,1.7-0.8
		c0.4-0.5,0.6-1.3,0.6-2.2s-0.2-1.6-0.6-2.1c-0.4-0.5-0.9-0.7-1.6-0.7c-0.7,0-1.3,0.3-1.7,0.8C563.4,194.6,563.2,195.3,563.2,196.2z
		"/>
	<path d="M584.1,185.9h-7.4v-1.1h3.3c-0.2-0.6-0.5-1.2-0.8-1.8l1-0.4c0.4,0.7,0.8,1.4,1,2.3h3V185.9z M583.5,192.1H577V191h6.5
		V192.1z M583.5,189H577v-1.1h6.4V189z M583.2,200.7h-1.1v-1.1h-3.8v1.5h-1.1v-7h6V200.7z M582.1,198.4v-3.3h-3.8v3.3H582.1z
		 M594.9,200.3l-0.6,0.9c-2.1-0.7-3.8-1.5-4.9-2.4c-1.3,1-3,1.7-5,2.3l-0.7-0.9c2.1-0.6,3.7-1.3,4.8-2.1c-1.4-1.3-2.5-3.1-3.2-5.4
		h-0.7v-1.1h8.8v1.1c-0.9,2.5-2,4.2-3.1,5.4C591.4,198.9,592.9,199.6,594.9,200.3z M594.8,190.4h-2c-1,0-1.5-0.5-1.5-1.4v-4.5h-3.7
		c0,1.9-0.3,3.4-0.8,4.3c-0.5,0.9-1.1,1.7-2,2.2l-0.8-0.8c0.8-0.5,1.5-1.2,1.9-2.2c0.4-0.9,0.7-2.5,0.6-4.7h5.8v5.3
		c0,0.5,0.2,0.7,0.7,0.7h1.8V190.4z M592.1,192.7h-5.8c0.7,2.1,1.7,3.6,3,4.7C590.6,196.2,591.5,194.6,592.1,192.7z"/>
	<path d="M602.2,182.8l-1.2,3.9v14.4h-1.1v-11.8c-0.6,1.3-1.2,2.3-1.7,3.1l-0.8-0.9c1.6-2.3,2.8-5.4,3.7-9.1L602.2,182.8z
		 M615.8,188.9h-9.3c-0.4,0.7-0.7,1.3-1.1,1.7h9.1v8.9c0,0.3-0.1,0.6-0.3,0.9s-0.4,0.5-0.7,0.6c-0.3,0.1-0.9,0.1-1.8,0.1l-0.4-1
		c0.5,0,0.9,0,1.2,0c0.7,0,1-0.2,1-0.7v-2.1h-3.4v3.6h-1.1v-3.6h-3.9c-0.5,1.5-1.2,2.9-2.2,4l-0.8-0.7c1.6-1.8,2.4-4,2.4-6.5v-2.3
		c-0.7,1-1.6,1.8-2.5,2.6l-0.7-0.8c1.5-1.3,2.9-2.8,4-4.6H602v-1h3.9v-2.1h-3.5v-1.1h3.5v-2h1.1v2h4v-2h1.1v2h3.3v1.1h-3.3v2.1h3.8
		V188.9z M609.1,196.2v-1.8h-3.4c0,0.7-0.1,1.3-0.2,1.8H609.1z M609.1,193.4v-1.7h-3.4v1.7H609.1z M611,187.9v-2.1h-4v2.1H611z
		 M613.6,193.4v-1.7h-3.4v1.7H613.6z M613.6,196.2v-1.8h-3.4v1.8H613.6z"/>
	<path d="M623.4,187.4h-1.8v4.6c0.5-0.2,1-0.5,1.5-0.9v1.1c-0.5,0.3-1,0.6-1.5,0.9v6.6c0,0.9-0.5,1.3-1.5,1.3H619l-0.3-1
		c0.5,0,0.9,0,1.3,0s0.6-0.2,0.6-0.5v-5.9c-0.3,0.2-0.8,0.4-1.7,0.9l-0.3-1c0.7-0.3,1.3-0.6,2-1v-5.2h-2v-1h2v-3.7h1v3.7h1.8V187.4z
		 M630.8,185.1h-1.5v2.3h-1.9v1.3h2.5v3.7h-2.5c0,0.5,0,0.9,0,1.3h2.9v0.9h-2.9c0,0.5-0.1,0.9-0.2,1.3h3.4v0.9h-3.6
		c-0.5,1.6-1.7,3-3.6,4.2l-0.7-0.8c1.7-1,2.8-2.1,3.2-3.4H623v-0.9h3.1c0.1-0.4,0.2-0.9,0.2-1.3h-2.8v-0.9h2.8
		c0.1-0.5,0.1-1,0.1-1.3h-2.5v-3.7h2.5v-1.3h-1.8v-2.3H623v-1h1.5v-1.4h0.9v1.4h2.8v-1.4h1v1.4h1.5V185.1z M626.3,191.4v-1.8h-1.5
		v1.8H626.3z M628.3,186.5v-1.4h-2.8v1.4H628.3z M630.4,200.1l-0.7,0.7c-0.9-1-1.8-1.8-2.6-2.4l0.7-0.6
		C628.5,198.2,629.4,198.9,630.4,200.1z M628.8,191.4v-1.8h-1.5v1.8H628.8z M636.9,199.7h-4.7v1.4h-1v-12.2
		c-0.1,0.1-0.2,0.4-0.5,0.8l-0.6-1c0.9-1.6,1.6-3.6,2.1-6l0.9,0.3c-0.2,1.3-0.6,2.6-1,3.7h1.8c-0.1-1.1-0.3-2.1-0.6-3.2l1-0.3
		c0.3,1.1,0.5,2.2,0.6,3.4h1.7v1H635v3h1.6v1H635v3.1h1.6v1H635v3h1.9V199.7z M634,190.6v-3h-1.8v3H634z M634,194.6v-3.1h-1.8v3.1
		H634z M634,198.7v-3h-1.8v3H634z"/>
	<path d="M645.9,187.4h-2.3v3.8c0.5-0.3,1.2-0.7,1.9-1.2l0.2,1.1c-0.8,0.6-1.5,1-2.1,1.4v7.3c0,0.3-0.1,0.6-0.3,0.8
		c-0.2,0.2-0.4,0.4-0.6,0.4c-0.2,0.1-0.6,0.1-1.3,0.1c-0.3,0-0.7,0-0.9,0l-0.3-1.1c0.2,0,0.8,0,1.9,0c0.1,0,0.2-0.1,0.3-0.2
		c0.1-0.1,0.2-0.3,0.2-0.4v-6.3c-0.6,0.4-1.5,0.9-2.6,1.4l-0.4-1c1.3-0.6,2.3-1.2,3-1.7v-4.5h-2.7v-1h2.7v-3.6h1v3.6h2.3V187.4z
		 M657.9,199.8l-0.4,1.1h-2.8c-1.8,0-3.3-0.2-4.3-0.5c-1.1-0.3-2-1.1-2.8-2.5c-0.6,1.4-1.2,2.4-2,3.2l-0.9-0.7
		c1.6-1.7,2.4-3.8,2.5-6.3l1,0.1c0,0.8-0.1,1.5-0.3,2.3c0.8,1.6,1.8,2.5,2.9,2.8v-6.4h-5.4v-1.1h11.8v1.1h-5.3v2.5h4.6v1h-4.6v3.2
		c0.6,0.1,1.5,0.2,2.5,0.2H657.9z M656.1,190.3H647v-7h9.1V190.3z M655.1,186.1v-1.8h-7v1.8H655.1z M655.1,189.2v-2.1h-7v2.1H655.1z
		"/>
</g>
<g>
	<path d="M550.2,235h-8.9v-1.5h3.6V221l-3.7,1.1v-1.7l5.4-1.7v14.7h3.6V235z"/>
	<path d="M552.3,223.1c0-1.3,0.3-2.3,1-3.1c0.7-0.8,1.6-1.1,2.8-1.1c1.1,0,2,0.4,2.6,1.1c0.6,0.7,0.9,1.7,0.9,2.9c0,1.2-0.3,2.3-1,3
		c-0.7,0.8-1.6,1.2-2.7,1.2c-1.1,0-2-0.4-2.6-1.1C552.6,225.2,552.3,224.3,552.3,223.1z M553.8,223c0,0.9,0.2,1.6,0.6,2.1
		c0.4,0.5,1,0.8,1.7,0.8c0.7,0,1.3-0.3,1.7-0.8c0.4-0.5,0.6-1.2,0.6-2.2c0-0.9-0.2-1.6-0.6-2.1c-0.4-0.5-0.9-0.8-1.6-0.8
		c-0.7,0-1.3,0.3-1.7,0.8S553.8,222.1,553.8,223z M566.5,219.1l-10.2,16h-1.5l10.2-16H566.5z M561.8,231.2c0-1.3,0.3-2.3,1-3.1
		c0.7-0.8,1.6-1.2,2.8-1.2c1.1,0,2,0.4,2.6,1.1s0.9,1.7,0.9,3c0,1.3-0.4,2.3-1.1,3c-0.7,0.8-1.6,1.1-2.7,1.1c-1.1,0-1.9-0.4-2.6-1.1
		C562.1,233.4,561.8,232.4,561.8,231.2z M563.2,231.2c0,0.9,0.2,1.6,0.6,2.1c0.4,0.5,1,0.8,1.6,0.8c0.7,0,1.3-0.3,1.7-0.8
		c0.4-0.5,0.6-1.3,0.6-2.2s-0.2-1.6-0.6-2.1c-0.4-0.5-0.9-0.7-1.6-0.7c-0.7,0-1.3,0.3-1.7,0.8C563.4,229.5,563.2,230.2,563.2,231.2z
		"/>
	<path d="M584,228.3l-0.8,0.8c-0.8-1.1-1.5-2-2.2-2.7v9.7H580v-9.3c-1,2.1-1.8,3.8-2.6,4.9l-0.8-0.8c1.2-1.8,2.3-4.1,3.3-6.7h-3.1
		v-1h3.2V220c-1,0.2-1.8,0.4-2.6,0.4l-0.5-1c2.6-0.4,4.7-0.9,6.2-1.7l0.7,1c-0.6,0.3-1.6,0.7-2.8,1v3.5h2.8v1H581v0.7
		C582.5,226.4,583.5,227.5,584,228.3z M594.9,231.7c0,1.5-0.1,2.6-0.4,3.2c-0.3,0.6-0.8,0.9-1.6,0.9c-0.9,0-1.4,0-1.7-0.1
		c-0.3-0.1-0.5-0.2-0.7-0.4c-0.2-0.2-0.3-0.6-0.3-1v-6.5h-1.9c-0.1,3.9-1.7,6.7-4.7,8.3l-0.8-0.8c2.9-1.4,4.4-3.9,4.5-7.5h-2.1v-5.5
		h8.4v5.5h-2.3v6.4c0,0.4,0.4,0.5,1.1,0.5c0.7,0,1.1-0.1,1.2-0.3c0.2-0.2,0.3-1.2,0.4-3.1L594.9,231.7z M588.3,218.3
		c-1,1.4-2.5,2.7-4.3,4l-0.8-0.8c2-1.4,3.4-2.7,4.2-3.9L588.3,218.3z M592.3,226.8v-3.4h-6.2v3.4H592.3z M595.1,221.3l-0.7,0.8
		c-1.3-1.4-2.8-2.6-4.4-3.7l0.7-0.8C592.2,218.6,593.7,219.9,595.1,221.3z"/>
	<path d="M616,224.3l-0.7,1c-1.4-0.6-2.5-1.2-3.4-1.8v1h-4.7v3h7.5v1.1h-7.5v5.9h7.9v1.1h-16.7v-1.1h7.7v-5.9h-7.3v-1.1h7.3v-3h-4.5
		v-1.1c-1.3,0.8-2.4,1.4-3.4,1.8l-0.7-1c3.9-1.5,6.9-3.7,9.1-6.6l1.2,0.4l-0.3,0.4C609.7,220.9,612.5,222.9,616,224.3z M603.8,233.1
		l-1,0.4c-0.4-0.9-1.1-2.1-2.1-3.5l1-0.5C602.6,230.8,603.3,231.9,603.8,233.1z M611.7,223.4c-1.7-1-3.3-2.4-4.9-4.2
		c-1.2,1.5-2.9,2.9-5,4.2H611.7z M613.1,230.1c-0.8,1.5-1.6,2.7-2.4,3.5l-1-0.6c0.8-0.8,1.5-1.9,2.4-3.5L613.1,230.1z"/>
</g>
<circle class="st8" cx="311.5" cy="186.4" r="127.2"/>
<g>
	<path class="st46" d="M301.2,148.3c-2.7-1.4-5.6-2.1-8.7-2.1c-4.6,0-8.2,1.8-10.8,5.5s-4,8.3-3.9,14.1h0.2
		c2.5-4.3,6.4-6.4,11.8-6.4c4.6,0,8.2,1.4,10.9,4.3s4.1,6.6,4.1,11.1c0,4.8-1.6,8.9-4.9,12.1c-3.2,3.2-7.4,4.8-12.4,4.8
		c-5.7,0-10.2-2-13.2-6.1c-3.1-4.1-4.6-9.7-4.6-16.8c0-8.4,2-15.3,6-20.6c4-5.3,9.5-8,16.6-8c3.8,0,6.8,0.5,9.1,1.4V148.3z
		 M278.1,174.5c0,3.1,0.9,5.7,2.6,7.9s4,3.2,6.8,3.2c2.8,0,5-1,6.6-2.9c1.6-2,2.5-4.4,2.5-7.2c0-3.2-0.8-5.7-2.3-7.5
		c-1.6-1.7-3.8-2.6-6.8-2.6c-2.7,0-4.9,0.9-6.7,2.6C279,169.7,278.1,171.9,278.1,174.5z"/>
	<path class="st46" d="M310.5,166.9c0-8.8,1.6-15.4,4.8-19.9c3.2-4.5,7.8-6.8,13.9-6.8c11.6,0,17.3,8.5,17.3,25.5
		c0,8.3-1.6,14.7-4.7,19.2c-3.2,4.5-7.7,6.8-13.7,6.8c-5.8,0-10.2-2.1-13.1-6.4C311.9,181,310.5,174.9,310.5,166.9z M318.7,166.6
		c0,12.7,3.3,19,9.9,19c6.5,0,9.7-6.5,9.7-19.4c0-13.3-3.2-19.9-9.5-19.9C322,146.2,318.7,153,318.7,166.6z"/>
	<path class="st46" d="M350.3,179.3c0-1.3,0.4-2.3,1.1-3s1.7-1.1,2.9-1.1c1.2,0,2.1,0.3,2.8,1c0.7,0.7,1,1.6,1,2.9
		c0,1.2-0.4,2.2-1.1,3c-0.7,0.8-1.7,1.1-2.9,1.1c-1.1,0-2.1-0.4-2.7-1.1S350.3,180.4,350.3,179.3z M352.2,179.2
		c0,0.8,0.2,1.4,0.5,1.9c0.4,0.4,0.9,0.6,1.5,0.6c1.4,0,2.1-0.9,2.1-2.6c0-1.7-0.7-2.5-2-2.5c-0.7,0-1.2,0.2-1.6,0.7
		C352.4,177.7,352.2,178.3,352.2,179.2z M365.5,175.4l-10.6,15.5h-2.1l10.6-15.5H365.5z M360.3,187.2c0-1.3,0.4-2.3,1.1-3
		c0.7-0.8,1.7-1.1,2.9-1.1c1.2,0,2.1,0.3,2.8,1c0.7,0.7,1,1.7,1,2.9s-0.4,2.2-1.1,3c-0.7,0.8-1.7,1.1-2.9,1.1
		c-1.2,0-2.1-0.4-2.8-1.1C360.6,189.3,360.3,188.3,360.3,187.2z M362.1,187.1c0,0.8,0.2,1.4,0.5,1.9s0.9,0.6,1.5,0.6
		c1.4,0,2.1-0.9,2.1-2.6c0-0.8-0.2-1.4-0.5-1.9s-0.9-0.7-1.5-0.7C362.9,184.5,362.1,185.4,362.1,187.1z"/>
</g>
<g>
	<path d="M307.7,212l-0.8,1.2c-2.4-0.9-4.7-2-6.8-3.2v1h-6.9V210c-2.2,1.3-4.5,2.3-6.8,3.3l-0.7-1.1c4.6-1.6,8.3-3.9,11.2-6.7
		l1.3,0.6c-0.1,0.1-0.3,0.3-0.6,0.6C300,208.8,303.4,210.6,307.7,212z M303.9,220.4h-13.5v5.5c1.4-0.3,3.3-0.8,5.6-1.6l0.1,1.3
		c-2.2,0.7-4.6,1.3-7,1.9l-0.5-1.3c0.3-0.3,0.5-0.6,0.5-1v-12.9h14.8V220.4z M302.6,215.7v-1.9h-12.2v1.9H302.6z M302.6,219.1v-2.2
		h-12.2v2.2H302.6z M299.6,209.7c-1-0.7-2-1.4-3.1-2.3c-1.1,0.9-2.1,1.7-3,2.3H299.6z M306.6,221.3c-1.2,1-2.5,1.9-4.1,2.7
		c1.5,0.8,2.8,1.6,4.1,2.4l-0.8,1.1c-2.5-1.7-5.6-3.3-9.5-4.9l0.6-1.1c1.5,0.6,2.9,1.2,4.2,1.8c1.2-0.5,2.7-1.4,4.4-2.8L306.6,221.3
		z"/>
	<path d="M321.3,218.2l-0.9,1.1c-0.9-1.5-2-3.1-3.4-4.6v12.8h-1.3v-12.9c-1.2,2.9-2.6,5.2-4.1,7l-0.9-1.1c2-2.4,3.6-5.3,4.8-8.8
		h-4.4v-1.3h4.6v-5h1.3v5h3.9v1.3h-3.9v1.3C318.5,214.6,320,216.3,321.3,218.2z M332.8,211.7h-2.9V225c0,1-0.2,1.7-0.7,2
		c-0.5,0.3-1.4,0.5-2.8,0.5c-0.5,0-0.9,0-1.3,0l-0.5-1.3c0.7,0,1.3,0.1,2,0.1c1,0,1.6-0.1,1.8-0.2c0.2-0.2,0.3-0.4,0.3-0.8v-12
		c-1.8,4.1-4.6,7.6-8.4,10.5l-0.9-1c4-2.8,6.9-6.5,8.6-11h-6.1v-1.3h6.8v-5h1.3v5h2.9V211.7z"/>
</g>
<line x1="432.1" y1="108.2" x2="364.7" y2="142.4"/>
</svg>
